<mxfile host="app.diagrams.net" modified="2023-04-10T14:52:35.375Z" agent="Mozilla/5.0 (Windows NT 10.0; Win64; x64; rv:109.0) Gecko/20100101 Firefox/111.0" etag="br2TNDNDREMxSwmawaae" version="21.1.5" type="device">
  <diagram name="Page-1" id="byFTLvBhS084WvWZB2dy">
    <mxGraphModel dx="2047" dy="651" grid="1" gridSize="10" guides="1" tooltips="1" connect="1" arrows="1" fold="1" page="1" pageScale="1" pageWidth="827" pageHeight="1169" math="0" shadow="0">
      <root>
        <mxCell id="0" />
        <mxCell id="1" parent="0" />
        <mxCell id="rZdIxD1Tz1D7jBUDSZB_-39" value="" style="strokeWidth=1;shadow=0;dashed=0;align=center;html=1;shape=mxgraph.mockup.containers.browserWindow;rSize=0;strokeColor=#666666;strokeColor2=#008cff;strokeColor3=#c4c4c4;mainText=,;recursiveResize=0;" vertex="1" parent="1">
          <mxGeometry x="610" y="180" width="390" height="240" as="geometry" />
        </mxCell>
        <mxCell id="rZdIxD1Tz1D7jBUDSZB_-40" value="Chat" style="strokeWidth=1;shadow=0;dashed=0;align=center;html=1;shape=mxgraph.mockup.containers.anchor;fontSize=17;fontColor=#666666;align=left;whiteSpace=wrap;" vertex="1" parent="rZdIxD1Tz1D7jBUDSZB_-39">
          <mxGeometry x="60" y="12" width="110" height="26" as="geometry" />
        </mxCell>
        <mxCell id="rZdIxD1Tz1D7jBUDSZB_-41" value="http://localhost:8501/" style="strokeWidth=1;shadow=0;dashed=0;align=center;html=1;shape=mxgraph.mockup.containers.anchor;rSize=0;fontSize=17;fontColor=#666666;align=left;" vertex="1" parent="rZdIxD1Tz1D7jBUDSZB_-39">
          <mxGeometry x="130" y="60" width="250" height="26" as="geometry" />
        </mxCell>
        <mxCell id="rZdIxD1Tz1D7jBUDSZB_-32" value="" style="shape=image;verticalLabelPosition=bottom;labelBackgroundColor=default;verticalAlign=top;aspect=fixed;imageAspect=0;image=https://res.cloudinary.com/dyd911kmh/image/upload/v1640050215/image27_frqkzv.png;" vertex="1" parent="rZdIxD1Tz1D7jBUDSZB_-39">
          <mxGeometry x="130" y="138.06" width="130" height="76" as="geometry" />
        </mxCell>
        <mxCell id="rZdIxD1Tz1D7jBUDSZB_-43" value="" style="endArrow=classic;startArrow=classic;html=1;rounded=0;exitX=1;exitY=0.5;exitDx=0;exitDy=0;entryX=0.004;entryY=0.53;entryDx=0;entryDy=0;entryPerimeter=0;" edge="1" parent="1" source="rZdIxD1Tz1D7jBUDSZB_-10" target="rZdIxD1Tz1D7jBUDSZB_-39">
          <mxGeometry width="50" height="50" relative="1" as="geometry">
            <mxPoint x="520" y="390" as="sourcePoint" />
            <mxPoint x="580" y="300" as="targetPoint" />
          </mxGeometry>
        </mxCell>
        <mxCell id="rZdIxD1Tz1D7jBUDSZB_-1" value="" style="sketch=0;html=1;dashed=0;whitespace=wrap;fillColor=#2875E2;strokeColor=#ffffff;points=[[0.005,0.63,0],[0.1,0.2,0],[0.9,0.2,0],[0.5,0,0],[0.995,0.63,0],[0.72,0.99,0],[0.5,1,0],[0.28,0.99,0]];verticalLabelPosition=bottom;align=center;verticalAlign=top;shape=mxgraph.kubernetes.icon;prIcon=pod;container=0;" vertex="1" parent="1">
          <mxGeometry x="-6.4506600012394415" y="207.9251443802754" width="69.62444999896714" height="72.4300310972901" as="geometry" />
        </mxCell>
        <mxCell id="rZdIxD1Tz1D7jBUDSZB_-2" value="" style="sketch=0;html=1;dashed=0;whitespace=wrap;fillColor=#2875E2;strokeColor=#ffffff;points=[[0.005,0.63,0],[0.1,0.2,0],[0.9,0.2,0],[0.5,0,0],[0.995,0.63,0],[0.72,0.99,0],[0.5,1,0],[0.28,0.99,0]];verticalLabelPosition=bottom;align=center;verticalAlign=top;shape=mxgraph.kubernetes.icon;prIcon=pod;container=0;" vertex="1" parent="1">
          <mxGeometry x="-6.4506600012394415" y="343.7314526876943" width="69.62444999896714" height="72.4300310972901" as="geometry" />
        </mxCell>
        <mxCell id="rZdIxD1Tz1D7jBUDSZB_-5" value="" style="shape=image;verticalLabelPosition=bottom;labelBackgroundColor=default;verticalAlign=top;aspect=fixed;imageAspect=0;image=https://cdn.iconscout.com/icon/free/png-256/elasticsearch-226094.png;container=0;" vertex="1" parent="1">
          <mxGeometry x="146.72312999648827" y="274.31933955279135" width="62.081705821739774" height="62.081705821739774" as="geometry" />
        </mxCell>
        <mxCell id="rZdIxD1Tz1D7jBUDSZB_-6" value="&lt;div&gt;ST4&lt;/div&gt;&lt;div&gt;Importer&lt;br&gt;&lt;/div&gt;" style="text;html=1;strokeColor=none;fillColor=none;align=center;verticalAlign=middle;whiteSpace=wrap;rounded=0;container=0;" vertex="1" parent="1">
          <mxGeometry x="-90" y="357.31208351843617" width="83.54933999876056" height="45.268769435806306" as="geometry" />
        </mxCell>
        <mxCell id="rZdIxD1Tz1D7jBUDSZB_-7" value="&lt;div&gt;Wikipedia&lt;/div&gt;&lt;div&gt;Importer&lt;br&gt;&lt;/div&gt;" style="text;html=1;strokeColor=none;fillColor=none;align=center;verticalAlign=middle;whiteSpace=wrap;rounded=0;container=0;" vertex="1" parent="1">
          <mxGeometry x="-90" y="221.5057752110173" width="83.54933999876056" height="45.268769435806306" as="geometry" />
        </mxCell>
        <mxCell id="rZdIxD1Tz1D7jBUDSZB_-8" value="" style="endArrow=classic;html=1;rounded=0;exitX=0.995;exitY=0.63;exitDx=0;exitDy=0;exitPerimeter=0;entryX=0;entryY=0.25;entryDx=0;entryDy=0;" edge="1" parent="1" source="rZdIxD1Tz1D7jBUDSZB_-1" target="rZdIxD1Tz1D7jBUDSZB_-5">
          <mxGeometry width="50" height="50" relative="1" as="geometry">
            <mxPoint x="146.72312999648827" y="223.01473419221082" as="sourcePoint" />
            <mxPoint x="216.34757999545542" y="147.56678513253365" as="targetPoint" />
          </mxGeometry>
        </mxCell>
        <mxCell id="rZdIxD1Tz1D7jBUDSZB_-9" value="" style="endArrow=classic;html=1;rounded=0;exitX=0.995;exitY=0.63;exitDx=0;exitDy=0;exitPerimeter=0;entryX=0;entryY=0.75;entryDx=0;entryDy=0;" edge="1" parent="1" source="rZdIxD1Tz1D7jBUDSZB_-2" target="rZdIxD1Tz1D7jBUDSZB_-5">
          <mxGeometry width="50" height="50" relative="1" as="geometry">
            <mxPoint x="127.22828399677746" y="464.44817118317786" as="sourcePoint" />
            <mxPoint x="210.77762399553802" y="503.6811046942099" as="targetPoint" />
          </mxGeometry>
        </mxCell>
        <mxCell id="rZdIxD1Tz1D7jBUDSZB_-10" value="" style="shape=image;verticalLabelPosition=bottom;labelBackgroundColor=default;verticalAlign=top;aspect=fixed;imageAspect=0;image=https://fastapi.tiangolo.com/img/logo-margin/logo-teal.png;container=0;" vertex="1" parent="1">
          <mxGeometry x="303.496919994216" y="266.7745446468236" width="226.9896109164872" height="82.06931589173904" as="geometry" />
        </mxCell>
        <mxCell id="rZdIxD1Tz1D7jBUDSZB_-44" style="edgeStyle=orthogonalEdgeStyle;rounded=0;orthogonalLoop=1;jettySize=auto;html=1;exitX=0.25;exitY=1;exitDx=0;exitDy=0;entryX=0;entryY=0.5;entryDx=0;entryDy=0;" edge="1" parent="1" source="rZdIxD1Tz1D7jBUDSZB_-11" target="rZdIxD1Tz1D7jBUDSZB_-25">
          <mxGeometry relative="1" as="geometry" />
        </mxCell>
        <mxCell id="rZdIxD1Tz1D7jBUDSZB_-45" style="edgeStyle=orthogonalEdgeStyle;rounded=0;orthogonalLoop=1;jettySize=auto;html=1;exitX=0.25;exitY=1;exitDx=0;exitDy=0;entryX=0;entryY=0.5;entryDx=0;entryDy=0;" edge="1" parent="1" source="rZdIxD1Tz1D7jBUDSZB_-11" target="rZdIxD1Tz1D7jBUDSZB_-28">
          <mxGeometry relative="1" as="geometry" />
        </mxCell>
        <mxCell id="rZdIxD1Tz1D7jBUDSZB_-46" style="edgeStyle=orthogonalEdgeStyle;rounded=0;orthogonalLoop=1;jettySize=auto;html=1;exitX=0.25;exitY=1;exitDx=0;exitDy=0;entryX=0;entryY=0.597;entryDx=0;entryDy=0;entryPerimeter=0;" edge="1" parent="1" source="rZdIxD1Tz1D7jBUDSZB_-11" target="rZdIxD1Tz1D7jBUDSZB_-17">
          <mxGeometry relative="1" as="geometry" />
        </mxCell>
        <mxCell id="rZdIxD1Tz1D7jBUDSZB_-11" value="Chat Adapter" style="rounded=1;whiteSpace=wrap;html=1;fillColor=#eeeeee;strokeColor=#36393d;container=0;" vertex="1" parent="1">
          <mxGeometry x="361.2917600033053" y="389.0002221235007" width="111.39911999834743" height="45.268769435806306" as="geometry" />
        </mxCell>
        <mxCell id="rZdIxD1Tz1D7jBUDSZB_-12" value="" style="endArrow=classic;startArrow=classic;html=1;rounded=0;exitX=1.087;exitY=0.565;exitDx=0;exitDy=0;exitPerimeter=0;entryX=0;entryY=0.5;entryDx=0;entryDy=0;" edge="1" parent="1" source="rZdIxD1Tz1D7jBUDSZB_-5" target="rZdIxD1Tz1D7jBUDSZB_-10">
          <mxGeometry width="50" height="50" relative="1" as="geometry">
            <mxPoint x="369.5213699931831" y="223.01473419221082" as="sourcePoint" />
            <mxPoint x="439.1458199921502" y="147.56678513253365" as="targetPoint" />
          </mxGeometry>
        </mxCell>
        <mxCell id="rZdIxD1Tz1D7jBUDSZB_-13" value="&lt;div&gt;Elastic&lt;/div&gt;&lt;div&gt;Search&lt;br&gt;&lt;/div&gt;" style="text;html=1;strokeColor=none;fillColor=none;align=center;verticalAlign=middle;whiteSpace=wrap;rounded=0;container=0;" vertex="1" parent="1">
          <mxGeometry x="136.97570699663285" y="343.7314526876943" width="83.54933999876056" height="45.268769435806306" as="geometry" />
        </mxCell>
        <mxCell id="rZdIxD1Tz1D7jBUDSZB_-16" value="" style="endArrow=classic;startArrow=classic;html=1;rounded=0;entryX=0.5;entryY=1;entryDx=0;entryDy=0;exitX=0.5;exitY=0;exitDx=0;exitDy=0;" edge="1" parent="1" source="rZdIxD1Tz1D7jBUDSZB_-11" target="rZdIxD1Tz1D7jBUDSZB_-10">
          <mxGeometry width="50" height="50" relative="1" as="geometry">
            <mxPoint x="522.6951599909108" y="509.7169406189841" as="sourcePoint" />
            <mxPoint x="592.319609989878" y="434.268991559307" as="targetPoint" />
          </mxGeometry>
        </mxCell>
        <mxCell id="rZdIxD1Tz1D7jBUDSZB_-17" value="" style="shape=image;verticalLabelPosition=bottom;labelBackgroundColor=default;verticalAlign=top;aspect=fixed;imageAspect=0;image=https://user-images.githubusercontent.com/1991296/230134379-7181e485-c521-4d23-a0d6-f7b3b61ba524.png;container=0;" vertex="1" parent="1">
          <mxGeometry x="411.2960399925634" y="554.2312305641937" width="121.69363943361469" height="40.48806901417811" as="geometry" />
        </mxCell>
        <mxCell id="rZdIxD1Tz1D7jBUDSZB_-25" value="" style="shape=image;verticalLabelPosition=bottom;labelBackgroundColor=default;verticalAlign=top;aspect=fixed;imageAspect=0;image=https://www.chip.de/ii/1/2/6/7/0/4/9/9/9/openAI_GPT-f26c3f74ac463c0d.jpg;container=0;" vertex="1" parent="1">
          <mxGeometry x="411.29603999256335" y="449.3585813712424" width="37.78886441323291" height="37.78886441323291" as="geometry" />
        </mxCell>
        <mxCell id="rZdIxD1Tz1D7jBUDSZB_-28" value="" style="shape=image;verticalLabelPosition=bottom;labelBackgroundColor=default;verticalAlign=top;aspect=fixed;imageAspect=0;image=data:image/png,iVBORw0KGgoAAAANSUhEUgAAApwAAABwCAYAAACzUqB1AAAgAElEQVR4Xu19CZBV1bnu3zSNoDQyKiCTKKKiMkQDojLcqCknJLm3cgXHWPeqSdQkNwNVMfXUilqlL/eZGH3RuvcZp6iV3HuDGqVMNIIK4gSioiICLaBAZFBomaHf/53Ti95nn7X2Xmvt4ZzT/a+qrlZ67TV8a+21vv2PdS1cSIogIAgIAoKAICAICAKCgCCQEQJ1QjgzQlaaFQQEAUFAEBAEBAFBQBAoINB+Cef6eW1L3OVQot5jZMkFAUFAEBAEBAFBQBAQBCqAQG0SzuYmouaPidbN5d/839v4Z/NbRLs/t4Ow+zAi/AyYQtSlJ1EfJqO9Rxf/W4ogIAgIAoKAICAICAKCQKoI1AbhBKlcxxLL9UwwFclMFYbWxvozAQUJxU//yVn0IG0KAoKAICAICAKCgCDQ4RCoXsIJaeXHTxAt/VVRepl3gbRz6PTiz5AL8+5d+hMEBAFBQBAQBAQBQaDdIFB9hBMSzKW/Jlo9u3pAhvodxHPU94uqeCmCgCAgCAgCgoAgIAgIAtYIVA/hXP4g0eKbijaZaZWhX2W7zi9ZDb80rRaJRlxBNPZGIZ7pISotCQKCgCAgCAgCgkA7R6DyhNOXaA4YRdTrCKJuXdnZZx/72zcT7VkVv1ydGonq+bn9/Nwerr5xPdGGZUQ7v4h/NlhjCEs8xzHxFO93N9yktiAgCAgCgoAgIAh0OAQqRzihOn/1h/b2mb2GsDPPsUSHNjBZZCno/m3pLlbDkUR72W5zC9uOrmGbUVsCOuoHRYmneLinux7SmiAgCAgCgoAgIAi0GwTyJ5xwBlp8c9EZKK505fiZw8cT9dxlJ72Ma8/275CC1h1FtImlnssD8TxNz4Nsjr+zqG6XIggIAoKAICAICAKCgCBQgkC+hPNjdgR66dvx8TIhzRzJsTH3VcA7PbxBOvfn8fLPUiaecVJPhFU6839Y2tlLtpkgIAgIAoKAICAICAKCQCsC+RFOqM/jpJrD2MlnIEsL93xQfQsEqedelnrGEU9IO7/2p2IsTymCgCAgCAgCgoAgIAgIAjmktoTX+XPfZFvNxWa4IdE8ju0zq5Fo6ka9n6Wvb7PEc0+Eo9HYm4q2nVIEAUFAEBAEBAFBQBDo4AhkK+FEwPZnpppV6LDRHMUZfTpVgercdSNA1b6OH2p6zfwkPNkn/U4cilyxlfqCgCAgCAgCgoAg0K4QyI5wwgv9eZZs7t6iBwxhjYYdwmpqDktUy6XziewE9bLZvhNhk859QUhnLa+xjF0QEAQEAUFAEBAEEiGQDeFc/kDROchURp/NBKwK7TR9oYS0sykiwDxI55ls1ylZinwRlucEAUFAEBAEBAFBoIYRSJ9wFsjmlQxJSzksUKGP4zBHtWKr6bqwu1ja+fbT+qfgTPQtDkwv8TpdUZX6goAgIAgIAoKAIFDjCKRLOBH26Plv6CHpg1BHHFzdJhtQLYNaz9LMhU/qZyDq9VpeWRm7ICAICAKCgCAgCHgikB7hLDgI/YPeZhP2msw3U88O5DnpzB+LsusskM6/SazOzBdBOhAEBAFBQBAQBASBakEgHcIZ5Y3e0cimWlmkylxkSJGJAPFwJJIiCAgCgoAgIAgIAoJAB0AgOeFEqkpINnVxNjsq2bQhnYjRWYjTWdcBtplMURAQBAQBQUAQEAQ6MgLJCSe80eEoFC4dnWweIJ2cPWnBf+n32DmsWh/AcUqlCAKCgCCQAIHVq1fTM888Q/Pnz6d33nmH1qxZo23thBNOoCFDhtBpp51W+DnxRHZ0lCIICAKCQA4IJCOcpvBH8EYfO7L2Y2ymtQAmRyLxXE8LYWlHEOiQCLz88st0xx13FIimTxk8eDDdeuutdN555/k8Ls8IAoKAIGCNgD/hRMrK2eP0TkITOXtQe/dGt4a4teJuliQs0YRMKthzsqRTVOuuiEp9QaDDIvDFF1/QtddeW5BqJi1PPPEEnX766UmbkecFAUFAEIhEwJ9wImXl+rnljZ8yjf+tBlNV5rFR1jZyOsyl5T2dcT/RiIhA+XmMTfoQBASBmkAAKvNLL73UqDZ3ncSmTZtcH5H6goAgIAg4I+BHOE3xNkewZLMnBzeXokcAGYkWLytPgymqddkxgoAgYIEAbDUnT55MW7dutagdX2XixIn01FNPxVeUGoKAICAIJETAnXDCKx2q9OYQsYTd5uhBHSfWpi/wDaewE9F/lz99/PeJJtzJ/16bXus/+9nP6N133/VFJffnnnzSEJw/95FIh4KAPQLTpk3zttfU9fLTn/6UZs2aZT8AqSkICAKCgCcC7oRz8U0spbu5vLsJFxDtW+I5jA722GfIvf5a+aS/tZLzrXP8zhosF1xwAS1YsKBmRi5qxJpZKhloKwK33357wUEozSL2m2miKW0JAoJAFAJuhBPSzT8wIcLvYBnGoX/6rRekbRGAav0VDeE8+nKiSQ/YtlJV9YRwVtVyyGDaGQJwEhozZkxqqnQFj3x4tbONItMRBKoYATfCaZJuile6+xLv4xSXizRq3W+xqUL3Ye7tVfgJIZwVXgDpvl0j8Oijj9J1112X6hzFfjNVOKUxQUAQiEHAnnCapJvHn010yAepAf3oXxvp0b/0oHWbOh9oc8rYL2nG2c108sidqfWja2jb9k702HON9Ptne1Dzjk6FKt277aep47bTVRd+TgP77kuv/07ssb5kbbkDUUHK+Tvup7ZsOYVwprc1pCVBIIwAHIXStpEW+03ZZ4KAIJAnAvaE0yTdPJXV6XuTq9NB9q66/XD6cE0X4/xnnrWVfjRjSyb4LFvdwP33P0A0w52AeKLvaac3p9e/UcpZe7acQjjT2xbSkiAQRADq9OHDhzuD0tjYSLfddlshqPuhh7JTJxe0hbBKiN85Y8YMyTTkjKo8IAgIAr4I2BNO2G4i2HuwpCjdnHnjAFoWQTZVtz+6aDPNPHub73y1z326sZ5m3DjQSDaDD907awOdkpak1STlLORZvynVOWbdmBDOrBGW9jsqAk8//TRddtllTtMH2UQkhpNOOsnpOaksCAgCgkBWCNgRzs0cyH322PIxpGS7+eTL3enm+/tYzRGSxj//70+o8eD9VvVtKt34n33ozwu621SlYwbvpsduXmdV16qSLgMRbDhhy1lDRQhnDS2WDLWmEPDxTr/lllvoO9/5Tk3NUwYrCAgC7RsBO8L54hVEHz1YisSAUUSD0pE0zmDpZpQqPbwEN165KVXV9leuHOq0yo/e9CmNHLLH6RljZZPH+jkvEA2Ykk4fObQihDMHkKWLDonA9773PXr88ced5r548WIaMmSI0zNSWRAQBASBLBGwI5yP9CoPhZRiCktXwjfjzK3045np2HK+sawrXc22oy4lbcJLupSXNeY8JITTZQdJXUHAHgGfd0vCHdnjKzUFAUEgHwTiCacpjeV4lnDut5Rwbt3OjkV7iQ5qIOp2EFGnoge4Kq6E86ppn9PV079IBSEfwhnZv5or5ti9K1HnNm9744DrxxMt/GPpn5Hu8pLN/G+14a2OTENwRvApcGRYulSTYz6isUGDBiWS4Eg6P5+VkmcqgYAQzkqgLn0KAoJA2gjEE86FPyB679el/drmTN+9m+gTJk17A+GEOjGBOpwlpt27HWjzvB8fQes3WxCz1ifSJJzwjp9y7WAnXO9jx6GyEE0g1Jjr7oCqHXPtx8Sxx8HR7cN56FUN4Zq+iKi3xnbWabTVX/nll1+m6dOnU0tLi/VgJaSLNVRSscYREMJZ4wsowxcEBIECAvGEE85CcBoKFht1+n526vn476VkU7UBIjb0sAPSvyinnXEjd9C27fW0PODB/tQda1ONiXkR25Cq9rt33U/HDN1FH358EDXvLJXEYvj4+7z/u6Z8+2CuQbIZrDG0H1EXc7inQlWdWn38/yEa9cN2v1XbK+GExHfr1q0Hcl8PHjy4IJU97bTTUlnT1atX05o1xb04f/78A22ecMIJhTA4qr9UOsuxETUv9Ts4j7Sw85kOJPEqFmbwv7PGuxYIp1qrIC5qrWp1H2KPqPmod7lHjx6FUFKVmJMag/qtxpDmWNR81Xqqva3m7fPeZPGMwqDazgifuWa9x4J3g/pvtWfyXtdowolg77DfDBcb73SoljdE2FkeegjRYSz944KwRDP/10DaFiJ4v7z2s0LQdVXnKfZmh3d62mGREINz7qKD6Rh2BFL9QfL5r2zbGSS6GIc2LNOOXUwYN5r3WiNLc/v3jt6L+zie6aL/Kq0z5EKiM2f77OGaeqYaCKdtjmpkZzn99NON+OLwuO+++wiZYRQZ1FW++uqrCzESXQpiJ+LAwGEbPESi2sCBgvGee+65hR8Vj9GlX1NdrNuCBQtim4L5w8yZMyPrYU5wjEEIoCjcgvNBHMmsC+aIcWF8NoHX1fhAtjA+X7yDxA3mKjZ9B7GYNWuWEZq4PWyDKcaH/YgfYIQPq0rtQ9VvmvvxscceI/xEvWe4tBF6KuycBRJk6+R10UUXRZoGqf2H9yIKY+w7xFvFuQJC7FLUeOPOLNUHxhx1Brr0bVtX7be4NVHtYW2AB8bqikfUmCqxx+bOnUs9exa5kk3BeuIOcrkn8GGh8MrS2TCacOrsN7tyAOETi0GEI8smPoA2R9h4dmOJ3yCW/LWWcGikNNXmcUM1/T1MhM+f2Ew3/cumcqvKzzkY/GcRNqWhuWr7axhJtOCvpX8q2HGm4xzli0Eez1UD4ezbt6+VSj9KlQ/S+tvf/jb28gWmOAjvueeeWHjVhYODNmnBhYFQObiUfIlQcAwu4Xo2btxIdXXl9sg4HJGyEfN0LSB1t956a6oXihrDvffeS/iJIr824wXpxJ6xOcRd8LTp21QniTkK1gv7PMl+xD7EBwj2oQ0utnO1xQ9k5K23Qlq71k5wSWM/2tqj65yzXM6z2bNn0xlnnFE2xSTvxTXXXFPYczbvuMuZFRwkPl5/85vfOBEh23UM1ktjv4FM4ZxIgyTb7jH0OW/ePO2UsT9uuOEG649I09kZbhwfJSCatsII03rgXMX+SQOvcB/RhFOXXcg22LuDhFMNCg48983uQSMH70nNC91nkwefwZh++WgvmnZas1myGifhPISdhwZaxBl9fXX5cKcvZjtOzrvejovLAa1gSHJp6qC0JZw6ySS+vi+99FKnFz1q/GgPF3oahEc3V1y4OIDxRZuk2B6+6GPFihVllxPmhzbipGNxY3zooYcSz0X1AaJx7bXXWl8GcWNTf7chni542varq+fz7mBP4pJMQjR1Y4EkthIfQDqiCPKFNbAto0aNohdffLGsust5plsLEAfswSTvBQjP3XffbfwYS2Of48MBEt40JYgKTOw3rAfOiLQKSDIwsSHipj5d3tG09hiIq+5jPYgVPpKwb9IsWRDPaML53HSi1U+UzmHcNKJ6/ddhSUXYcK7klJcmR5BBfYse6+2hRNmrYn62c90wkPFeWIpIjcXj9FlOlwNate9zaUaNzZZwQh0Z9HDHFzjIpqvK84knnij7glTqeFspqQ/WwWfuuusuuvjii72bcTl8g5IcXHYgL0m/xNXA07r4oFLEwZ1liZI+ueCZZIyu7w4uMuCC/ZlFwQcQiEBSiYoLfuE4pSB4rmT6nHPOoUceeSQR4Qx+wKZN6kE6QQjDBAv7HO9fEkIbfPeApYvKN24P4XxAZi2crWkX7DV8oPpm4HLZY2HC6bPHoAnDu2EinMBq2rRpqaylCWsQT4whDW1ENOHUOQxNPItozzK7fQDJ3yebykknvNTjPLfteqieWvDIX812nGGCHbBVjR3s55w+dHlIDF+DaS5j5xmqUEuEM6gqwQUxefJkL7XrypUrSy4CXHaw1UvjEnDBH2qxOPtKU3suh+8vfvEL+u53v1tQVWZxQIJ0Qk3qK73Ig2wqHHHpAfewKtUFT5c1Dtd1IZyuUr8k48rzAyj4wQfy5SNJM+Hocp6pD1icJXgvXD9c4/AGWQDpVCWL9YxSH8eNL/z3PN7DJB+oLu9ocI/5kE1gE5UxLKuzVLdmwAzaCHwwJynRhPN+TQxIG4eh4Igg/dvCNo4gn5BoHsohgmxiUyaZVaWeDc/1YJ6vixR3H6vOF7UdDoVpFALAP1CpGeXSr8sBrQbkcmnaTMJWwom21JcrLggfKR2caJYsWXJgWHkcslEYvPDCC15f/C6HLyQ5uJiylCD67gnsvwsvZAe9HIsi4MEuXfBMMlRbnHwvySRjy+sDSJlh4N27/vrrrey3w/PSaSlQx+U8w0UOlamPlsQWZ0VaslzPJOum5pFkLWyxUPWAO5xxhg51yzLo8o6q/ZHkfDftMXygjBkzJlcBhUmi74K9mXA2NxH9gSVu4XKKpEtzAdipbsMp7Dj036WP9J9MdO5cp2ZqrbLLAV0thBNq75///OdeUOte3NGjR9PatWu92kv6kEn1Fteuy+Eb11Yaf1eXt4vqJ4mU2nfMWP+HH364TE2WF542hNNX6ueLSfA5X/Ligh8wgLQmyaUd1lKoOficZ2ngZmpDeZe7mgy4jAl9JFGtJyFlLuMM1g1Lf23acdljIPqwk4cWzFdzZcoY5pPu1mZ+pjoQkuDDKKnphJlwrmOSM2dqaf+9mGwenWTY8mwkAjpPdSGcWshsLk2X3eYi4YR0JIlRv27slZCyBfGJUt2YcHQ5fF3WIkld13nkPQcc3HA00an+8xpL3LuTp6TJtNYmyU7U3nDBDxhAfY2wTj6lsbGRmpqatI9WG+H0mZ/PM74mEVANT5061UvK7DPO4DNx70K4/Tz3WFgTFvygyVsjA2lwGs5hboRzGMeK7MeOQFKyQaCDhkbyOaBdD4q4BXMhnHFtxf39wQcfpPPPP7+smk+A77i+bP8Ou0JIKKK8IZMcvrbjSFrP1Z5s7NixmTgnmOYRdXC7XGZJcIp6d+CokUQik2RcwWexHyFRcbHJzQs/jDPsPBgcu895lhZulWzHR+VaCQ1DECNXyWyee8yEJ2z9Ef4or6Iz//HtWwinL3JZPNeFxcfz/1be8pX2KR+zGFbWbfoc0LVMOBctWqS1HXKVcuLSCxaQhSRqeVNMQNP653n4uuzBsAey6VkfyQqkDth7cPhRqntcmmgL0jJ4dJvWIE76mheeUe8OJCc+MVGDGAMjlCR7Ec+7JkfICz+MLQpDn/PMZX9Xc12TmYFpzL7kCRJmODtCLa4+SnD+4R2cM2eOE0Qud0k17DGYgbjEBwZWiL+MsFBBKSX2Kc4tmFosXapJrc0omsx/nAAOVBbC6YtcVs/pYnEK4SxD2+WQsFmqtCWcuHSDtoSKDOLlX7VqlVGSGGWbozL2hA+OMOnEIe566KIN22D0qr+0Dl+V+QbSBlweOEyh1vUlLLZxOV3Hj7iLCIkVJ3XD2NF2cPw20h9cADonNB8s8H6YCi5pXQgikOXLL7/cS7WJ+cEmMtwu2oQHuE1GKt14bT8e8KzretqcC+GPOjWPqD2WFuFU7zukvSrzFPDcti0ioYrNpAJ1FHFDH2m8ey6mEDgToWFwLcr+1vQeot1LLrnESKLC/UUlAgjXzXOP6QQAIIhTpkyxhgzrizMrTh2OPYu5Bd/TKPMf6wGEKpoJpy7oe84q9Rc43eTytQ00oM9euuC0L33n6PzcU/MPoXWbOtOIQW2pLp0b8X1ACKcVctVKOEHacPHqXnBcGjgMo15+3SFsusyjgPIxKnc5eNO44HGZI72nCQ9fxxXbveF6ebiqllT7SQ9uH1MLk7NB1J7xjbpg4+TjirUap8tHkG8fYUywXggBYwoXhksfH5MmwpOUcKJ/vBe6xAxphU8CEcEcIfnSFV+Pdtt3D336nFG2WhhXVb0tUU5zjwErUxxk0x5z1YLZfOgG1x/tI2ICnJx8o5dEnTFmwrn0V0Sv/rD02ZwJ5+TvDabmHZ0KY+jebT9d/PWtNOPMbYV86mkX5E5/7LlG+v2zPUr6nHv3GpZGpd1bRHtCOK3AdjnYbBpMKuGE9AvZe3Rp6mz6D9ZRhxoImVLfuraB+j6e7y4qsSSHb5x6Wc3Xh2wBN8QejLNHdb3wbC+74FqpFIlxEoao9fXBwJVwul5karwu76EvibGVcibZj2o+tvsyar2SEE4QbJDNKCk6PkonTZrkLenEWYUoCXEhgXz2XVygcoWbj3TT5sMmTJ5snWtszTfS2GOuH67BOUHCjaD4tsXl/VRtgqxjDyfNRKcbY1Wr1L9yZXmMrLSJp45oBoF64/99LITTdnd71vM5oH1epKjhJSGctqpWW3iUTWDSzCs+oZtsv/QxF5/DF5IVZGexnZuPmteWcELt5mJ6kPaes90PPhe/K+F0Jd8YOyRxCLYfR+yDFxk+glxVwrYk0Gc/BtfA54NCt4Y+5xnacZHm+qwX+oDE65577ok1C0Fdn1BFtu+e69nkKqlT6wJibrJPDK6drXYnyR6zVW/HfczYkmi04+pEaXsm+darOcIZnOgFnN98xllbaeSQPc7zX7a6gR77aw96an73yGdzJZydeCyvvlc+HrHhLMMk7cvfl3AmVZc6b1yHB3ykCC64+hy+PuE1XNfG1uPedfxJMpQ4LFtZ1TwIp6sjAgbpKnHy/UixJRuu6xkE2mcupjX1IZy2EjbVp0/oKnwYx+XlDs4JH77Dhw932rq2hNP1Y8/3Y8BlT9hI0l3aCwOXxh7z0USk0a/TJoioXNWE86IbB9DyNV1i53rM4N108rE7acq4HfSVkTuN9d9c1pXmLupGb3zQlT60aHcEt/vYTevyk3DqwiI1HEp06eexGNRyBZ8D2oUY2WDjSmpUmy4SQZtxpF2nT58+Tk264Opz+LpK3jB4HzK0cePGWMmbz6WN8cyYMaNg6uASYN5pEUKVsyacro4Iang+a4mPoHHjxjk7Jtn05bMfMRdbQmu7hnmcZz592JLB4Dxdzw9I1PBRGSf1dmnXVZIeHL8LTjZnue8ec5FeR+0zHyEC2oOjIM4sW82S7V53rWcmnJvfIkIu9XDJMdPQv93Vj+a9xakwHQvU7iOHcm7z1rLs4y4H7DJdmpo8Zjv9+/WfUW4mnBL43Xp5XIiRTaM+hDPti8pmnLo6IAwIYg3vbvw3JBM+KTfRtguuPoevDXEIz9HHmcWGcPqSHzU+HOIgn/jJsmRNOH1Up0n2PuJ8uuYMz4oMQM0Js4CkGVR8SY56zuW9U8+4nlk+hNNn78W9e65SOlu7UN076EI4bUw3fM487DGkMo6LbmF7hvjY5qu2of2BUyvOrLTGYztu1HPPpZ4j4Xzy5e508/1uEhqXycfV/dFFm2nm2emFoIjrj2U5RK+HcqlLpiEtbD4HdBT+roc32vJRD8fvgegaikziwjaF0UnSh8vh7nP4VhPhBE4+ZDaMr0odCLVoEucg07r5XPouOPusY5L3zyf6gI1a0GceLvvd9r1yITkdkXC6fuCAJPlqE1Q4KZu1s9nTPnvMpl2b8ak6rvavprYRXg/EE7/zKu6Ec+JZRHuW5TK+TzfW07SfDqJKhT1/6o61NLDvvlzmWuhkHxPORSHCOfZGorE35TeGCvSU1wGdJuGEPRRSFOZVENAYAXp9U/HZjtNFCuJz+LoQITVmH1IYJ2VRbbtKW+JwhEoREgQc4mlJELImnD7tm7JlxeGDv/vsG5tL26ddG7s9mzkF6+R1nrl+JLu822o+Pnsj7t3zWSfXNfCpXyt7DCQazlC+cYrD2IDQIwQYPr58ib0t3tGE85kpROvnlbY14QImRkva/g1q4JZuxf+v25E6Gb3q9sPozWWt7dvOKoV640buoP+Y9fcUWgo10TCM/6GRaFdnooO2M5afEO1vLlb6rD9R02ulD4y/k2jUD9IfRxW1mNcBHTVln8MbAXWzLDhYkMIMX7SIi5ZHcbmUfC6OaiOcwDQtiUFwfSD1RHibNNTtPpe+C84+7fs6cQAjH5Jv41ST136Mew/zOs98ziybcGHB+fnsjTjC6ethH4d70r9nRThd3kXbOcB0CmvjGvEhrn18LP/kJz9J1cQk2Gc04VzIROe9X5eOcfR5RF3eIerM0ri3WMKzQ+PQMurrzKk2M5naEDe/2L9XSq1+45WbaNrprUQwdpQxFeB9vncEY8nk3YRX9zVEb39a/vdzXiAaMCXpCKr6+bwO6FohnJUgmgqbjkg4MfesLkFID+6+++5Exvo+l77LJefTft6EMyp3udq7Qjijj3mXd1u15LM34ginT5t5XGC19FEDPFxNE2wxxMcyEgJEZSuzbStcL5pwLn+A6KVvlz6D4O+H9CJa+mx8n2POJ2p421wP0lGCFzo7+Oxn4mogqOf9+Ahav5klgjGl/0H76UeDd9GfmutpwfpS7/YzD9tNExr30S0r4qWl/Xvvpad/yZJHUwGBrD+iKNmFVDdi7FQ/mmjJS3qiGWx/wAlE694t77Gdh0TChIVwti07vlwRINvVqSLu3bD9u8ullNcFn6VKPYiLb15nG2wh6QTx9Ck+F7QL4TzyyCOdJehJspD4SDiFcJbvnFqVcPrsZ5/3xvWZWpJwqrmBdOLcSlvSifZhHgSJeFqmQWgzmnCaPNVdVnLYeKLD2fFGqY1B1poH6wkr6g48iNXyTSU9vMHhjK65/XCjLSeI5r8P2UXHtqred/XfTRP/3kY4Tzp0D/1uZz2Tvk60r9deepJTZd6ysqtxFvfN2kAn68IruY4dZHNhArVrb35+OkcLaOdFCGdxgYNpxSq15B2ZcAJzBJqHtDOLA9yXdPpc0C6Ec9iwYc7zFcJpfkPzOs+EcKZ7StYi4QQCWQopIO1EhIiTTjopFbCjCSe6eLgnE8AvknV2zBSiQ1eytHMY0WKWeOrUysEewnai/LdfPtqLU0/2KBsHJJe37epE9VtKJaBvHruDrv6wW4GkvnDELuqxholsoGwcvpOuWNeF1vGzwXL+xGa6+V82lc/XdexJySZGcPz3iSZwisHogAUAABmnSURBVNF2XvI6oKNg9Dm807Th9I2FqJsTHJrwVYqYa3fccYfT7unohBNgwaQBUoPHH3/cCTubyj6kM2vC6dO+qNSFcJoQqFWVeq0STrUO0DjBHj3tj+U0JZ3xhPO56USrn4g+SweM4mTnfYnWsDRup4GcgnTi73FkU/UUIp1IQfmvLOUMBoIH2bz9CyaarfnWw4P82zE7aERLHQ1erpdmQhL6TX5+fSvpRKD3/2DpZlmu9vrDWS2+3H7ssGGNMjkYymYJnTgf/Ko3onH92v8QDf2GzT1W03U6OuEEwUFsQsTR9CkIjIy8t4gLCZIZVIG4BFhG30I421YAcTpxiKdNPB966CGnPMU+hNBFwunTft6Es5bs6/I6z3w+ksVpyHzCZhXr1eVd9Dn/g8/gLrn33ntTJ55phQ+LJ5w6O87gDEdMJuq5qvgvndj7eu9RRG+GQvv4oNiNJauj2dEmYNcJ0nkVk05kCYIa/Wm0ayCbtl1C0vn1pq5kJJto6LMB7D3+qm2T5npH/wNRP3ZE2ru+WKeeTQgW/tFc/xJ2vOrC9rLtvOR1QEfB6HN4pyXh9LUdBDnEV/kZZ5xhnJoQzuQvD4gnQlKlJT2wTb2pRu5DCF0uOZ/277rrLrr44ou9wPWx/a0l6VNe55nPmVUNhNN1/fFBnXW4HmxkRJWIi6PrOna06/Iuer1QmodAPGEeBPJpk0vept8kH5mqfTPhhFRz3dziD2w5TUWj/qZ69mBfaEk6Ie3bygRsy+ryHo4/mx2UPij5dyXpvLu+hfquLFWT24Cmq/PsV5tp4hVbyiWbBVJosMPsyiknD2enp8089m2asYc70sylQNBfXaofdhcm3L0Zx8Zhxd9DL2QpMv93Oyx5HdDVSDhxMCB1o2vYI9sLXwhnui8MjPRBPhcsWJCoYdv1Qyc+hNDlkvO5RG0IoAkgOMUBQ5eSVeB3F5xsx5vXeVarhNPVuxpZrR5++OHYdJm265Okns+7ksUec5kDzLVAPJNqatJIz1lOOEEw4Zne3GQ3Jx3hxJO6IObBFkHYxjGR2sPSURCvDYeUx6BE/Qmn6L3XZ/Pzf+HntrMzUJIynb3jp0fYqK7mfjZwGKiosYNvrjMQRzw3ZAKTUw55FC5RhDNcFwQU8TgRCL6dlbwO6CjYfA7vNCScrocv5uCikhXCmc3LklTd7nJ4Z004ffagjde4CfmxY8cS8HMptaTuzOs88zmzqkHC6RqlAI4rK1euFMLp8sJo6iZVt2MdVq1q1WZ7jqWUcH48m+j5b3JTDrl9VFxO3QA+P5JoeShwvKo3bhpLDwOSU5CvJWvLbUBP4XpkkLB+xmRzNhOxxRyeyIV4HszZg077kuhsDqbdLyKTEByFFmiyyZzKsUj3BkhoVybOLxkkuiDWowexl74mRWYXzlU/P8Y+NozriCuIzvid53JX52N5HdDVSDgvueQSmjNnjvXCuBAVNCqE0xpar4ogTpDYueauhyH+vHmGszE0kqwJp6/DGkiAa8gU3/z1NlKiapE+5XWe1Srh9DmXXDQCXi+y5UPVsscsh6utpoinq0MpGkuamauNcEKiOZsJ0G5NIPeo2cHW8qSBbWGPgnVBIj9koqVTl09k209IN4Nl94lMOguWmW2l91Cio2II8Jfsaf4Bq9c/YOeg1Q1EG9mRaBP/VqXPHqK+e1nSyL+P3ck/u1hVz047ceXLYzlY+19Ka/UaQnS05sGP+N+082SzgD2lZgEHnt7CNqofPR83ivK/f+1PrGJnZ652UvI6oKPg8jm805BwupIJ15SCQjjzeUl8AsfbkCiM3nWP4BnbthU6o0ePdk6VZ6PmDqPvc2FDpfrII4/ELqRP2644xQ6CK+R1nvmcWdUg4fTZ03CIxNgrXaplj6WBg49mw0bTEDW2NsL5IqvRP3rAbx4q7JHu6QYmbQtCpA31TmHiFi4NLBFdoPnqN6nt/UZr9xQ80xe+Xl7XJHHVpaUc908sxQ2lqlQtxjkMRY0StpzfSibatgMhn1p5HdDVSDhdCaGr4bZr+x3VSx1SPjgmuErs1J6C1OCoo46ilhZ77ZAt2cmDcPo4rrk6P/naK9sS22ohA3mdZ7VMOH3Syd5yyy2FDDiVLNWyx4AB3idoDOIcnaLwcj1b0iOc9yMeZeiwRLijoex1zoJB2sp2jib1eIFARqi+dZJLHeFEOzriZiPlTHsX6qSbUerx8LiB3SCNGh3jhKr+DY5HapImH85ZhwYNJzqYg+Sv54xHOtzbkZQzrwO6oxFOH+eMjkg4FREC2UyShnL48OGFS8CmNDY2UlNTk03VXCScvmp1F+eh6667rpCOz7XYqvGqhQzkdZ7VMuEEUYItr0tJOwi5S9+qbrXsMYxHZWCbNWuWdxpK1w/NdAgnHIXmcMieIOEEuRrLXtgqhA9m2Lk/02pWoYfVzGo1TJJInWp94qSyjEKFZkwS0bDNp89usX3GZLs5ijE6GLpzTVlWx6T847Y/TDSo0qMCyCNt6EAE2g+p4HUkHM5DY2+ynVFV18vrgG4PhNMmHiFIzw033ODsCQx8OiLhDKfORHB2ECmXUCyuEk4XpxtXKQTW0VZ6GnwnfPrB87feeitdc801kWeMz8cPGnSxWa4WMpDXeVbLhBNr62OGAtKJ/TZz5kyvOw3REbBP4PXuIxmslj0WlhDD5ABnFuIwuxTXd97nXAmOp6hS1xFOkJ9+rfEiwzMAKVzFkjedZ7aJdHZm+8xXAvaZUc5GOoKlicvpAqxTXV3cTRfnH9PcDjqGY5RysPdw8Hu0fdIU5vuL9cPUefwL4SR82aVVfA7vNGw4J02a5BwnLeqCx2WHy903iHxHI5wm1R4uNqjvQPBt1OyuhMrWLhH72/VS8CWcPkRJvX+48EA6zz333JJXEhc8flydqlQjttJN1K8WMuCDo4ukWGHjc2ZViw0n5uAj5QzuN1uChY9B7EGEBlLnIvYrpHV1dSwocijVsMeitBF4/3A/2Hwsu9pwumhlTJCaCSee+OpxTILYm9tU9rN3ti7Iu4l0Br3WowikScoZZSvqsGmiq/KcXtcYJ0dJWDccwW/PK8VmTcQUedhXs9nCundLuwexP4yDwbfwj6kE21d1hHC2C8Lp6qWulh/2c8gupMiQCvTrSzRVux2JcOLgnjp1aqzdJS4nHOSQiAB3dZjjwnz33XcLF5kroXLxus2LcGIPhKW9PscqyDqKa2zZcF820vzgM9VABjAeIZwbrYmcq0o3vEfwPkKqh6gPQYkl3m2chVgLvKO64moPjzYqvcdwzuMdNc1JzRN4ABecW3gfFTZ4Hs+qD0GX99tF22Bqt81pSGvDybaEQ9ibe38EGQI5XMRZeIIpLREz8mRO9r6nqbRfqOQXL2urOyCifZ0NJVqLshV1QU9X16Tuhmf6MexxrwttVMeq89f+s6218fz/+0MqcRPZ/CoHczdJNVWL25n069JknvMC0YApSWdcFc/ndUBHTdZHWpCGhNPHeD7LResohNP24M4K6xUrVlDPnnxOWpQ8CSdINKTuaedjtphmSRVkl3nxxRetpMvqwUqTATWOvM4znzOrmiScwAvvIfbb2rUcEjHnArL61lsRSW0046n0HktK0JNA7BohRddXvJc6SOFQDjm07zPzWHWB2yHBHKshnWH1sIl01rFE8G1W24dzs5vaTYIknjWRQvwtHHdT9bWfUwq++fu2nnVmCLp2uyOUFGcwCoeFCs4BzzUP1pPNQzhU1D83JZ1x1Tyf1wFdjYQziVopiwXsKIQTNq6QTFaiuKpP8yScwAOqtuuvvz5W8psldj7OCZUmA0I4iwhs3Ggv4UR9pGC8/PLLK7LfbCMgqLWt5B4DTpdddlmWr52x7VGjRhXiBruaIIQbbCOcL13J3tCGgOIgeSdw3Ewy2BiqVnexnebbATtNEzkMx6w0SjoN6u0eTLiO48xEUZJX12UxSRKDueKDberqh2OL6sjmEcezBzrbjeikpar9Luzh/hF/8YUzHKm/I9XluSzhhCS5HZSOTDixfD7G81kte0cgnJW84Hwkd3kTTuytShJyVxJQDWQg+D7mdZ61Bwmnws3VnjCt8w9Szrlz51prGypFOH1DiqWFk88HoK7vIuFc+ivO6f1v/PeYGHLDxhP1ZxX7vg3meYTzqOtIZ9iBCK2h7X7ryts1ZSuKUse7omwim5BEjmL7zDA51DnxhHOl68imLp96cKx4ZheHQ3rrz/EzGMKB38/kAPDtoOR1QEdB5XN4p6FSx5h8Q9JksfQdgXD6ELi0sHZJS6r69BlvUm/SSn0I+ZJNjLdSZCC8N/I6z3zOrGpTqQexq5R5kYvGoVJ7rFLYYH1cbamjzsq6ll1bWugPHHDdJcPQV9j2sPNys4QRAdwXsW2EUofrHIR0nui62JxR2YrSIJ26GKEKMV02JPwtPHado1DY0z3OXrMzSy3f4jSaYQ/2qNVrJ7E48zqgq5Vw+l6WNiQIhym+4hED0aZ0BMKZJd5RGPuSqUoRTswlT0mniyOVDudKkQEhnKUIuKrUg09XQtIJdTHshW1KJfcY7klow/K0d4WjEGITJ1WlK2zrWt69s4Ve/WE51nCUKQQef58lmhrJJ4Kxj2TV7169BxiFSSfI4SDOXa5K2O4zSvoXbis42iSe6/VsR7nwKf0+m8CB7PcZDIqDUlxIQdkjjPatbmsnLAGNaqsLB9b/ZDtREzte6QpU8PtZBa8LQTWEiX9ByukW2sHmxcqzjhDOIto+xMK0Tghhcc899xQ82YHvhRfyXrEoHYVwAgpIlhHOKM7j0wK2yCpYi9tuu807dqDPvkhDwqkmBRIA4pnU69wEEswMsFddYwiG26skGQiOJa/zrL1JOBWGeC8vvfRS79Butu8r3kuEPkM4L5vQZ2i30nsMqnWQzjlz5thO07teGl7p4c7rWuZd0VKW0jJstwgV+BecbkgX8D1KzR4mlRPPYkcZ9lIPFniuowQDzOsgiiKdPp7rpuDu6Hvc1zklJRPtqAKnpk69S4mmqv96K/ksOAdx2CNdLnWoz/cyYX/zj+W9wPmoP+PSsiKgztfYs8KG85LN/LwQTu+3qvVBn8M7LZV6cOxp2HMixiMITjAWm22Ky45EOBXusOmEA9GCBQuSbqOy5yE9AZnyCTKtGqs04cQ4srrooK6DFN7WYz9qgSpNBtTYhHC6OQ2Z1hTrCVVyFhETQKaw74YOZcGZQ6mWPQZnU4zl8ccfdxi9XdWgsMLuCftadS1PT2mh9XNLn5j4j0ySNHnETZmGQHxOZKeiTganIkgEkR6zc5BA2Q/yQM2wfWiwiQmnRNuWhrtby7HiwjExUSfOztJm2HWtKbvq2DtK5xzUhf/+PktPNwcyE6FdU6Yh1acissExXMk2tUI4bVYlsk61EE4MEocsDhPXgzZKUmQbYL4jEs4gUQDxTEN6AKIJyYlvRpTgZq0GwqnGA+kTMEp60fle+EI42xDwObOq2YZTt7b40MF+S4N4qncyGL/Y9eKoFsKpxg3iCXyghXC9L8Jzx/2B88pF4uuKn55wjmEJX0OEhA/EE/49Ta+V9ge1+ZEs9QvH33QdVVR9E+k8+mtEvdiu1KaYVOlpkM2o/iHV3Mb2re8FPPlRH+YLx3E8U50kVLXXwGlGF/y1vPV2QDjx0iAQrUtBMO6kKrhgfzhIXArsItMgE6Y+cdDiEHnmmWciJW/4GgUOSMeIg9RU0JZNUHiXeUGS4xrw3Cc7lO3Yg3P36Uc9r4LoY26Yo43NFNYBUkwVbDmJRDO8hnnP3+Y9UBhhfwKjuMsOlxkwQSDqJBd+1Njy2o9x+OR1nuVxZlXT3sP6qv22dOnSuGUgtefUXZHGO1kte0w3eWhq1Jllgw/agIABuACjqPsjFmzLCnUti25socU3l1a3jXWJoO/vc5DzLQH7xYKDEMen3LfEcgge1UxB4U352cNdrGAVdFi6GBXc3WOIZY9Ahb+K1d9BqSqcjUZBMhwTfNYUI7Q/P4vwSDUu4UwD3vbcBi53SJZQ8Bv2RlCX43cah2h7xi6tueGiQVGZOnBAq4K1sEkll9ZYqrGd4B4F4UJRmGCP2trIVePcZEzViQDOQuw7dS6qMxH/L3uueFcofEBEkX0o+B6mKbCx3SF1LdtWFb3Uw8U29iaeQ4rLpfNKg7Tr7DVtRxVXD7ahSzkofPPnpTWj8rOrmp1ZCvvKM+U9TOQMQVESxrgxRf0dhPHtT0s90CFN7c6xNqNSWqJNSDbf4fzr27aU9zD+TiasP0gyMnlWEBAEBAFBQBAQBASBzBEoxuF88QoONP6gvrOCNzp7c++NkcKF7TtNAdNTm9IEznn+h9LWEBB+ZEwsUZ10VJchKLVxoqGAww+8zocOiie3IJqfsle/yXsd2Ya+wWvSToK/pwq3NCYICAKCgCAgCAgCVYVAkXBCwtncFD0wEM8jmTg1sKQuKvA7iGfzQJbesZfQ3qIaMJMCL/HX3itvejzCCEXkftfF/5xwQbYmAMBkYzeiPvXcD9IsGQokt50QJonTiK5+JR626eykhaxDUgQBQUAQEAQEAUFAEKhiBOpamv7UQs9/o3yIsGnswURp95flMSAR+7Ivp5bckyGhtAFtNXuabwjFAY1T5es8vSeczETw7zY9ZlMH9p1fMCFdybE4g4Hf1RrsZQL9iYZcH3050SSkI63tsEjZgCqtCgKCgCAgCAgCgkC1IKB3GhrA8SGZbx4I6QMJ3VaWKK54s9ROU0k9o7IOZTlTnbTSh3DqMhxlOW7VNrIL6aSZMEfod1Cp2l2XTlOchvJYJelDEBAEBAFBQBAQBBIioCecJucbqHx3sDTu7VBYHzgYjZlozjqUcJDGx1exZG9jKJalD+E8lfO479Xkcc9q3JBormWTg7DavBCHkyWde1aV96wLiySEM6sVknYFAUFAEBAEBAFBIEUE9IQTkssRrDI32UKaAsDbhiVKYwLw/H5Vo2Y+lUlbVNaitUyaw2kiTz03X7IcDssUF/AdeH0xnOjDuaXICeFMYydJG4KAICAICAKCgCCQMQJ1LZsWt9Ds1sw4wc4QxH0Yk84oyZ8inrA93MnxsCayKlgnnctiErrg7Y1sB8ChQSOLzks964Dv4QG9z97nCOl0JNuODkCgfI5lGlW2H8dhoJ4tryFhkbLYWdKmICAICAKCgCAgCKSMQNFL/ZkpROs5jma4FFTlk+JDIqU8KKvmdOp0G+JoyjKUt1rdZpJQo69iVb8uBWcDB43/5yYJi2SDo9QRBAQBQUAQEAQEgYoiUCScmzme49NTWdIWCqSuhjaMbRwHskf4nmUVHeyBzjsxEXtVk+bxtAvZq96Qzz048ndYGguJbLDYkNW8Zl9/OGdv6kq07CVzjyLdzGs1pB9BQBAQBAQBQUAQSIhAkXCiLH+A6KVvRzengsDv51iSUbEuEw4q8nHYbr7PoZq2hpyF8BCIcc9+RPUc71JXdu4k+pJJ9QYmzsHwQ6punMNRlvNC2w0ncrD3jeZg76r/QjgkXi8pgoAgIAgIAoKAICAI1AACbYQTg/14NtGLTDpNkk41IajahzO5O3QH123Kd5qfstPPJ0uz6ROZio6LcJbKoldIM/dwoPxVLGUO53fX9Tf2RqKxN2UxEmlTEBAEBAFBQBAQBASBTBAoJZzoAhmHkOpSZ9OpGwKknkNYMncwO8JkST4h2dxyWLmndtqwHM5zOapXtnMBydzHJHPtCr19pm5OSGUJqeaAKWnPWNoTBAQBQUAQEAQEAUEgUwTKCafqDtLOhT9gFbRGdW0aEsjnAHYT78FBy1vY2SUqBabLtBAg/V22Z9y2xeUp/7rIT34ie9ynFdAeZLnhGFbjN7DK/H17kokZwDnoBF6HUfwjedP911SeFAQEAUFAEBAEBIGKIWAmnGpIsO1c+itW9y5xHyQIaF/O097IpOmg7cXnbRyPQNDq+bntHNh9xfz8iGZ4hsp0oCer8fcx8bYh0F04F3pLZ6JdbEe6k81jN3/iRjDVGIRouu83eUIQEAQEAUFAEBAEqhKBeMKphr1ubtGx6KMH05kI4nwexPaS4dLEMT1tyxmcR3zEFUUzgG38g9/4iSq9WVoKSWGf1t8FD/0pTIRDXuumNoacStRpf/lfP2VHpN0GL3/b+aAegrljTviRIggIAoKAICAICAKCQDtAwJ5wqsmCVEHd7iv1TAM0SP9gzzh0ehqtFUnqc9yWjxQ3jRHAPvOYVpLZfVgaLUobgoAgIAgIAoKAICAIVA0C7oQzOHQQNZBP/Ng6GSWdOiSAE1jFD0llmgVEGiR68c1ptmpuCyQThBlEM+255DMD6UUQEAQEAUFAEBAEBAErBJIRzmAXSvK5iVXU6+emLy0E0UQ4oKy9tEGiF3E/aZkOKIxAMKHGx/hBNEWSabVBpZIgIAgIAoKAICAI1D4C6RHOMBYgoCCfsJHEbxA5/La1lVQSQBA0/FTCQxt2qyDPhd+a1J+m9e89ukgoQTAhvcRvIZi1/7bIDAQBQUAQEAQEAUHAC4HsCGfUcJSTj65O1hJML5gCD4FA7zI4B1X72JPOXZ4XBAQBQUAQEAQEAUHAA4HKEE6PgcojgoAgIAgIAoKAICAICAK1iYAQztpcNxm1ICAICAKCgCAgCAgCNYOAEM6aWSoZqCAgCAgCgoAgIAgIArWJgBDO2lw3GbUgIAgIAoKAICAICAI1g4AQzppZKhmoICAICAKCgCAgCAgCtYmAEM7aXDcZtSAgCAgCgoAgIAgIAjWDwP8HgKvDkTWP3JcAAAAASUVORK5CYII=;container=0;" vertex="1" parent="1">
          <mxGeometry x="411.2960399925634" y="509.7169406189841" width="167.4721494656454" height="28.08522387283488" as="geometry" />
        </mxCell>
        <mxCell id="rZdIxD1Tz1D7jBUDSZB_-33" value="Search Pipelines" style="rounded=1;whiteSpace=wrap;html=1;fillColor=#eeeeee;strokeColor=#36393d;container=0;" vertex="1" parent="1">
          <mxGeometry x="361.2917600033053" y="192.83555456833994" width="111.39911999834743" height="45.268769435806306" as="geometry" />
        </mxCell>
        <mxCell id="rZdIxD1Tz1D7jBUDSZB_-34" value="" style="endArrow=classic;startArrow=classic;html=1;rounded=0;entryX=0.5;entryY=1;entryDx=0;entryDy=0;exitX=0.5;exitY=0;exitDx=0;exitDy=0;" edge="1" parent="1" source="rZdIxD1Tz1D7jBUDSZB_-10" target="rZdIxD1Tz1D7jBUDSZB_-33">
          <mxGeometry width="50" height="50" relative="1" as="geometry">
            <mxPoint x="299.896919994216" y="192.83555456833994" as="sourcePoint" />
            <mxPoint x="369.5213699931831" y="117.38760550866277" as="targetPoint" />
          </mxGeometry>
        </mxCell>
        <mxCell id="rZdIxD1Tz1D7jBUDSZB_-36" value="" style="shape=image;verticalLabelPosition=bottom;labelBackgroundColor=default;verticalAlign=top;aspect=fixed;imageAspect=0;image=https://raw.githubusercontent.com/deepset-ai/haystack/main/docs/img/haystack_logo_colored.png;container=0;" vertex="1" parent="1">
          <mxGeometry x="326.50885744386375" y="90" width="180.96817247037146" height="56.72378468886353" as="geometry" />
        </mxCell>
        <mxCell id="rZdIxD1Tz1D7jBUDSZB_-38" value="" style="endArrow=classic;startArrow=classic;html=1;rounded=0;entryX=0.5;entryY=1;entryDx=0;entryDy=0;exitX=0.5;exitY=0;exitDx=0;exitDy=0;" edge="1" parent="1" source="rZdIxD1Tz1D7jBUDSZB_-33" target="rZdIxD1Tz1D7jBUDSZB_-36">
          <mxGeometry width="50" height="50" relative="1" as="geometry">
            <mxPoint x="118.87334999690142" y="117.38760550866277" as="sourcePoint" />
            <mxPoint x="188.49779999586855" y="41.9396564489856" as="targetPoint" />
          </mxGeometry>
        </mxCell>
      </root>
    </mxGraphModel>
  </diagram>
</mxfile>
